<svg xmlns="http://www.w3.org/2000/svg" viewBox="0 0 181.08 181.08">
  <g id="Capa_2" data-name="Capa 2">
    <g id="Capa_1-2" data-name="Capa 1">
      <path fill="#DBF227" d="M97.77,181.08H83a5.23,5.23,0,0,0-.85-.2,82,82,0,0,1-22.48-5q-42.06-16.09-56-59.06A93.75,93.75,0,0,1,0,98V83.82a9.53,9.53,0,0,0,.2-1,85.16,85.16,0,0,1,8.06-30Q25.78,16.23,64.33,3.71A95.74,95.74,0,0,1,83.3,0H97.42a6.68,6.68,0,0,0,.86.2A84.58,84.58,0,0,1,136,12.42c25.2,15.5,40.07,37.91,44.24,67.35.19,1.35-.2,2.87.85,4V98a1.86,1.86,0,0,0-.59,1.41,51.8,51.8,0,0,1-1,7.34c-7.66,36.09-29.11,59.69-64.1,71C109.67,179.57,103.72,180.34,97.77,181.08ZM117,151.43v11.78c0,2.22.09,2.28,2.18,1.45A78.78,78.78,0,0,0,161,127a76.42,76.42,0,0,0,8.16-46.58,77.64,77.64,0,0,0-24.92-48.11C125.37,14.91,103,8,77.58,11.94c-17.8,2.77-32.9,11.11-45.11,24.37C17.55,52.51,10.25,71.66,11,93.81a75.56,75.56,0,0,0,8.14,32.09A79,79,0,0,0,62,164.85c1.17.47,1.75.38,1.73-1.08-.05-3.42,0-6.84,0-10.26,0-1.34-.48-1.68-1.83-1.51-8.22,1-15.08-1.52-20.32-8-1.25-1.56-2.25-3.32-3.47-4.9-1.78-2.31-3.72-4.51-6.76-5.08-1.36-.25-1.69-1-1.78-2.15-.19-2.34-.32-4.7-.61-7-.18-1.44.33-1.87,1.72-1.88a17.7,17.7,0,0,1,10.47,3.67c3.59,2.53,6,6.09,8.42,9.65,3.21,4.72,7.43,5.69,12.88,4.3a1.93,1.93,0,0,0,1.64-1.8,20.17,20.17,0,0,1,1.71-6.1c.53-1.18.19-1.74-1-2.06-1-.28-2-.64-3-1a47.49,47.49,0,0,1-19.77-12.86c-14-15.63-13.73-39.07-3.35-54.88a5.69,5.69,0,0,0,.93-4.43c-1-6.17-1-12.33,1.15-18.31,1.88-5.27,5.67-7.36,11.18-6.49,6.19,1,11.58,3.84,16.8,7a6.43,6.43,0,0,0,5.31.85,69.35,69.35,0,0,1,32-.13,8,8,0,0,0,6.6-1.09c4.64-2.92,9.47-5.49,15-6.52,6.91-1.29,10.93,1.16,12.88,7.93.16.57.29,1.14.41,1.72a42.41,42.41,0,0,1,.16,15.28c-.18,1.08-.44,2.11.31,3.2,6.83,9.91,9.17,20.95,7.68,32.77a41.29,41.29,0,0,1-16.32,28.48,50.82,50.82,0,0,1-16.63,8.34c-1.4.43-1.82,1-1.12,2.41a18.79,18.79,0,0,1,1.34,4.19C117.47,142.11,116.73,147.19,117,151.43Zm-42.35,3.39c0,4.46,0,8.11,0,11.77,0,1.49.38,2.19,2,2.46a81.59,81.59,0,0,0,27.71,0,1.87,1.87,0,0,0,1.85-2.21c0-7.31,0-14.62,0-21.93a18.62,18.62,0,0,0-4-12.13c-1.93-2.37-3.5-5-5.2-7.58-1.15-1.72-1-1.88,1-2.22,5.34-.87,10.72-1.5,15.88-3.21,9.5-3.13,17.37-8.49,21.52-17.82,5.43-12.23,4.22-24.16-3.46-35.18-2.13-3-3-5.89-1.93-9.54s.77-7.37.47-11.07c-.2-2.48-.61-2.67-3.06-1.89a41.61,41.61,0,0,0-11,5.61,11.82,11.82,0,0,1-10.82,1.73A52.72,52.72,0,0,0,90,49.64,68,68,0,0,0,73.31,52a8.7,8.7,0,0,1-7.39-1.19l-2.25-1.39a50.26,50.26,0,0,0-10.24-5.12c-2.51-.81-2.94-.6-3.12,2-.28,4.06-.42,8.14.71,12.11a7.51,7.51,0,0,1-1.35,7.15c-.48.6-.92,1.23-1.34,1.86a34.8,34.8,0,0,0-5,28.87c2.78,11.16,10.31,18.2,20.71,22.45,6,2.48,12.49,3.26,18.87,4.26,1.93.31,2.06.53.95,2.17-2.07,3.08-4.18,6.14-6.3,9.18a15.49,15.49,0,0,0-2.71,7.54C74.42,146.44,74.78,151,74.62,154.82Z"/>
    </g>
  </g>
</svg>
