<svg xmlns="http://www.w3.org/2000/svg" viewBox="0 0 180.87 181.08">
  <g id="Capa_2" data-name="Capa 2">
    <g id="Capa_1-2" data-name="Capa 1">
      <g>
        <path fill="#DBF227" d="M158.28,181.08H22.73c-.72-.86-1.81-.74-2.75-1A26.56,26.56,0,0,1,0,154.32q0-64,0-127.92A26,26,0,0,1,5.12,10.76C9.49,4.74,15.52,1.39,22.73,0H158.28a29.39,29.39,0,0,1,11.46,4.69c6.2,4.42,9.71,10.51,11.13,17.9V158.13c-2.5,12-9.57,19.54-21.56,22.34A1.6,1.6,0,0,0,158.28,181.08ZM90.33,170q31.32,0,62.65,0c6.89,0,12.32-2.66,15.52-9.06a18.44,18.44,0,0,0,1.63-8.4q0-25.93,0-51.88V28.11c0-5.56-1.63-10.4-6.17-14-3.26-2.57-7.06-3.39-11.08-3.4-9.88,0-19.76,0-29.64,0H28.48c-4.08,0-7.95.72-11.29,3.29-4.64,3.57-6.32,8.45-6.32,14.09v86.82c0,12.65,0,25.3,0,37.95,0,6.89,2.69,12.31,9.09,15.49A18.64,18.64,0,0,0,28.38,170Q59.36,170,90.33,170Z"/>
        <path fill="#DBF227" d="M74.49,111.47q0-17.56,0-35.12c0-2.34,0-2.36,2.34-2.36q13.85,0,27.7,0c.82,0,1.72-.27,2.11,1,.26.88,1.11.24,1.68.09,6.93-1.81,13.79-1.7,20.35,1.33,11.21,5.16,17.63,14.06,19.86,26.11a32.22,32.22,0,0,1,.35,5.8q0,19.16,0,38.3c0,2.44,0,2.45-2.42,2.45-9.12,0-18.24,0-27.35,0-1.78,0-2.31-.52-2.3-2.3.07-11.47,0-22.94,0-34.41,0-3.5-1.42-5.56-4.14-6.14a5,5,0,0,0-5.86,3.57,11.56,11.56,0,0,0-.32,3.15q0,16.86,0,33.71c0,2.36,0,2.38-2.31,2.38H76.86c-2.36,0-2.37,0-2.37-2.33Q74.48,129.12,74.49,111.47Zm10.86-.08c0,8.23,0,16.46,0,24.69,0,1.58.43,2.27,2.1,2.18,2-.11,4,0,6,0,2.18,0,2.24-.07,2.24-2.33,0-8.46-.07-16.93,0-25.4a16,16,0,0,1,32,.88c0,8.18,0,16.35,0,24.52,0,2.26.06,2.32,2.24,2.33q2.91,0,5.82,0c2.19,0,2.25-.07,2.25-2.32,0-9.06,0-18.11,0-27.17a26.06,26.06,0,0,0-1-7.49c-4.15-13.89-19.48-21.84-33.15-11.72-2.13,1.57-4.22,3.18-6.35,4.75-.45.33-.92,1-1.52.66s-.31-1.07-.31-1.63c0-2.24-.06-4.47,0-6.71,0-1.29-.49-1.8-1.78-1.76-2.11,0-4.24.1-6.35,0-1.7-.09-2.25.51-2.23,2.22C85.39,95.16,85.35,103.27,85.35,111.39Z"/>
        <path fill="#DBF227" d="M64.17,111.54c0,11.76,0,23.52,0,35.29,0,1.77-.5,2.32-2.29,2.3q-13.75-.12-27.52,0c-1.78,0-2.3-.52-2.3-2.3q.09-35.28,0-70.57c0-1.77.51-2.32,2.29-2.31q13.77.12,27.53,0c1.78,0,2.31.52,2.29,2.3C64.13,88,64.17,99.78,64.17,111.54Zm-21.18,0v24.33c0,2.3,0,2.33,2.4,2.34,2.06,0,4.12,0,6.17,0,1.3,0,1.76-.5,1.76-1.78q0-24.95,0-49.88c0-1.32-.54-1.77-1.8-1.74-2.11,0-4.24.1-6.34,0-1.73-.1-2.24.55-2.22,2.24C43,95.23,43,103.4,43,111.56Z"/>
        <path fill="#DBF227" d="M32.13,47.47c0-4.64,0-9.29,0-13.93,0-1.45.48-1.94,1.93-1.93q14.12.08,28.22,0c1.45,0,1.94.48,1.93,1.93q-.07,14.12,0,28.22c0,1.46-.48,1.94-1.93,1.93q-14.11-.06-28.22,0c-1.46,0-1.95-.48-1.93-1.93C32.17,57,32.13,52.24,32.13,47.47Zm21.17.23c0-1.23,0-2.46,0-3.69,0-1-.42-1.52-1.47-1.51H44.46c-1,0-1.48.49-1.47,1.51,0,2.4,0,4.8,0,7.2,0,1.1.43,1.63,1.56,1.6s2.46,0,3.69,0C53.31,52.81,53.31,52.81,53.3,47.7Z"/>
      </g>
    </g>
  </g>
</svg>
