<svg xmlns="http://www.w3.org/2000/svg" viewBox="0 0 180.66 181">
  <g id="Capa_2" data-name="Capa 2">
    <g id="Capa_1-2" data-name="Capa 1">
      <g>
        <path fill="#02121b" d="M180.66,79.3a106.26,106.26,0,0,1-2.38,12.62c-7.55,27.84-31.68,49.06-60.06,52.85a71.94,71.94,0,0,1-45.77-8.66c-1-.58-1.74-.74-2.72.24Q48,158.19,26.21,179.94c-.33.33-.62.71-.93,1.06h-.71Q12.92,169.32,1.24,157.64c-1.65-1.65-1.65-1.66,0-3.27q21.46-21.48,43-42.92a2.26,2.26,0,0,0,.45-3.27A69.34,69.34,0,0,1,35.54,67.8C37.42,44.24,48.29,25.64,67.8,12.28A69.87,69.87,0,0,1,113.15.19a70.5,70.5,0,0,1,44.54,19.45,71.43,71.43,0,0,1,22.76,45.74,6.21,6.21,0,0,0,.21.85ZM46.48,75.49c1,32.62,29.39,60.53,64.58,58.92,31.56-1.44,59.1-27.56,58.78-62a61.71,61.71,0,1,0-123.36,3.1ZM24.79,165.55a12,12,0,0,0,1-.78q17.46-17.45,34.93-34.9c.83-.83.81-1.33-.1-2.1a63.5,63.5,0,0,1-7.47-7.47c-.84-1-1.36-.94-2.22-.07Q33.54,137.65,16.12,155c-.72.72-.89,1.2-.06,2,2.66,2.57,5.25,5.22,7.87,7.83A9.58,9.58,0,0,0,24.79,165.55Z"/>
        <path d="M108.24,21.26c28-.27,51.58,23.21,51.39,51.63A51.57,51.57,0,0,1,108,124.28c-28.35,0-51.59-23.57-51.42-51.85S80.17,20.89,108.24,21.26ZM108,32.1c-22.9.45-40.5,18.3-40.48,40.69a40.56,40.56,0,1,0,81.12-.17C148.55,49.7,130.46,32.43,108,32.1Z" fill="#02121b"/>
      </g>
    </g>
  </g>
</svg>
