<svg xmlns="http://www.w3.org/2000/svg" viewBox="0 0 180.45 148.57">
  <g id="Capa_2" data-name="Capa 2">
    <g id="Capa_1-2" data-name="Capa 1">
      <path fill="#DBF227" d="M0,128.56c7.4-2.51,14.8-5,22.22-7.51,5.69-1.91,11.32-4,16.87-6.25.48-.2.95-.43,1.4-.63,0-.72-.59-.79-1-1A39.81,39.81,0,0,1,21,90.64c-.83-2.4-1.6-4.81-2.41-7.21-.31-.94-.53-1.78,1.31-1.24-1.42-1.82-2.67-3.28-3.77-4.85A38.63,38.63,0,0,1,8.8,54.69c0-2.29.32-4.57.46-6.86.08-1.42.69-1.7,1.93-1.13a3.26,3.26,0,0,0,2,.51c-.41-1-.81-1.84-1.17-2.74C7.09,32,8.37,19.9,14.68,8.21c.78-1.45,1.56-2.9,2.37-4.34,1-1.79,1.1-1.79,2.36-.26A151.32,151.32,0,0,0,31.33,16.87,90.29,90.29,0,0,0,80.45,41.36c1.4.23,1.81-.26,1.67-1.59C80.07,19.09,95,4.24,113,.86c12.62-2.37,24.19.1,34.36,8.21a3.07,3.07,0,0,0,3.22.6c7.28-2.34,14.46-5,21.65-7.55.45-.16.88-.35,1.33-.48s.93-.49,1.31-.08,0,.89-.14,1.32c-1.76,5.06-3.54,10.11-5.3,15.17-.78,2.21-.77,2.25,1.63,2.18,2.64-.08,5.28-.25,7.93-.34.49,0,1.16-.26,1.43.32s-.32,1-.61,1.37c-5,6.9-10,13.83-15.16,20.66a18.7,18.7,0,0,0-4,12.31A128.09,128.09,0,0,1,160,74.13c-3.29,28.12-16.28,49.82-41.76,63.18-11.56,6.06-24,9.24-36.92,10.51a136.26,136.26,0,0,1-42.78-2.18c-10.77-2.37-20.7-7-30.32-12.25L0,128.92Zm77.55-20,.07.61c-16.14,7.57-32,15.68-49.51,21.52a46.65,46.65,0,0,0,8.39,3.08c11.71,3.27,23.67,4.1,35.78,3.69a104.58,104.58,0,0,0,28.42-4.73,72,72,0,0,0,28-16c9.46-8.89,15.32-19.86,18.45-32.38a99,99,0,0,0,2.44-28.59,29.84,29.84,0,0,1,6.72-20.68c.67-.84,2-1.74,1.61-2.7s-1.93-.27-3-.33c-1.8-.1-1.91-.23-1.32-2,.28-.84.58-1.67.86-2.5.94-2.7,1.87-5.39,2.9-8.37-2.26.64-4.16,1.2-6.08,1.72a9.77,9.77,0,0,1-9-1.78c-1.11-.88-2.17-1.81-3.32-2.63C128.5,9,113,9.2,102.76,17c-7.67,5.84-11,13.58-9.52,23.22.59,3.72,1.44,7.39,1.76,11.16.18,2.18.06,2.4-2.11,2.28A139.79,139.79,0,0,1,77,51.91,101,101,0,0,1,36.5,35.27a117.4,117.4,0,0,1-14.34-12c-.56-.54-1.27-1.53-1.56.2-1.82,10.82,1.25,20.07,9.15,27.6C34.49,55.59,39.94,59.25,45,63.37c.46.38,1.19.58,1.21,1.36a1.32,1.32,0,0,1-1.2.21C37.44,64,29.8,63.7,22.27,62.36c-1.25-.22-1.35.2-1,1.17.14.39.26.79.41,1.17,4,9.72,11.21,15.62,21.32,18.09,5.59,1.37,11.19,2.73,16.78,4.13.57.14,1.34,0,1.65.8a5.18,5.18,0,0,1-2.28.87q-8,2.25-16,4.43a40.82,40.82,0,0,1-6.38,1.32c-.45,0-1.06-.16-1.31.29s.29,1,.59,1.35a27.46,27.46,0,0,0,15.26,10.19c5.68,1.5,11.54,1.27,17.33,1.77C71.61,108.2,74.58,108.34,77.55,108.53Z"/>
    </g>
  </g>
</svg>
